# xmcd
#
# Track frame offsets:
#	150
#	10935
#	22507
#	40270
#	56100
#	73027
#	85029
#	103117
#	119135
#	134792
#	150797
#	163780
#	181137
#	195217
#	225877
#
# Disc length: 3243 seconds
#
# Revision: 0
# Processed by: cddbd v1.5.2PL0 Copyright (c) Steve Scherf et al.
# Submitted via: audiograbber 1.83.01
#
DISCID=b40ca90f
DTITLE=The Steam Donkeys - Cosmic Americana
DYEAR=1997
DGENRE=Country
TTITLE0=I'm the One You Love
TTITLE1=The Only One Who Cares
TTITLE2=Silly Clown
TTITLE3=Can't Find A Place To Stay
TTITLE4=When The Big One Hits
TTITLE5=The Other Side Of Town
TTITLE6=Just A Dream
TTITLE7=What You Been Spreadin' Around
TTITLE8=Grandpa's Thunderbird
TTITLE9=Jesus On The Cross
TTITLE10=Put Your Money Where Your Mouth Is
TTITLE11=Treat You Like A Child
TTITLE12=Bonus Track 1
TTITLE13=Bonus Track 2
TTITLE14=Bonus Track 3
EXTD=
EXTT0=
EXTT1=
EXTT2=
EXTT3=
EXTT4=
EXTT5=
EXTT6=
EXTT7=
EXTT8=
EXTT9=
EXTT10=
EXTT11=
EXTT12=
EXTT13=
EXTT14=
PLAYORDER=
